# AST/ASF file generated using VICON BodyLanguage
# -----------------------------------------------
:version 1.10
:name VICON
:units
  mass 1.0
  length 0.45
  angle deg
:documentation
   .ast/.asf automatically generated from VICON data using
   VICON BodyBuilder and BodyLanguage model FoxedUp or BRILLIANT.MOD
:root
   order TX TY TZ RX RY RZ
   axis XYZ
   position 0 0 0  
   orientation 0 0 0 
:bonedata
  begin
     id 1 
     name lhipjoint
     direction 0.630305 -0.712092 0.309259 
     length 2.29033 
     axis 0 0 0  XYZ
  end
  begin
     id 2 
     name lfemur
     direction 0.34202 -0.939693 0  
     length 6.43538  
     axis 0 0 20  XYZ
    dof rx ry rz
    limits (-160.0 20.0)
           (-70.0 70.0)
           (-60.0 70.0)
  end
  begin
     id 3 
     name ltibia
     direction 0.34202 -0.939693 0   
     length 7.43097   
     axis 0 0 20   XYZ
    dof rx
    limits (-10.0 170.0)
  end
  begin
     id 4 
     name lfoot
     direction 0.0334653 -0.0919451 0.995202   
     length 1.78438   
     axis -90 7.62852e-016 20   XYZ
    dof rx rz
    limits (-45.0 90.0)
           (-70.0 20.0)
  end
  begin
     id 5 
     name ltoes
     direction 1.53535e-011 -4.21933e-011 1   
     length 0.90832   
     axis -90 7.62852e-016 20   XYZ
    dof rx
    limits (-90.0 20.0)
  end
  begin
     id 6 
     name rhipjoint
     direction -0.682059 -0.67077 0.291312   
     length 2.43143  
     axis 0 0 0  XYZ 
  end
  begin
     id 7 
     name rfemur
     direction -0.34202 -0.939693 0   
     length 6.63488   
     axis 0 0 -20   XYZ
    dof rx ry rz
    limits (-160.0 20.0)
           (-70.0 70.0)
           (-70.0 60.0)
  end
  begin
     id 8 
     name rtibia
     direction -0.34202 -0.939693 0   
     length 6.86532   
     axis 0 0 -20   XYZ
    dof rx
    limits (-10.0 170.0)
 end
 begin
     id 9 
     name rfoot
     direction -0.105199 -0.289033 0.951521   
     length 1.77126  
     axis -90 -7.62852e-016 -20   XYZ
    dof rx rz
    limits (-45.0 90.0)
           (-20.0 70.0)
  end
  begin
     id 10 
     name rtoes
     direction -1.53551e-011 -4.21978e-011 1   
     length 0.889273   
     axis -90 -7.62852e-016 -20   XYZ
    dof rx
    limits (-90.0 20.0)
  end
  begin
     id 11 
     name lowerback
     direction -0.0514305 0.998089 0.034245   
     length 2.02077   
     axis 0 0 0   XYZ
    dof rx ry rz
    limits (-20.0 45.0)
           (-30.0 30.0)
           (-30.0 30.0)
  end
  begin
     id 12 
     name upperback
     direction 0.0203189 0.999449 -0.0262315   
     length 2.01413   
     axis 0 0 0   XYZ
    dof rx ry rz
    limits (-20.0 45.0)
           (-30.0 30.0)
           (-30.0 30.0)
  end
  begin
     id 13 
     name thorax
     direction 0.0452736 0.998142 -0.0407729   
     length 2.02986   
     axis 0 0 0   XYZ
    dof rx ry rz
    limits (-20.0 45.0)
           (-30.0 30.0)
           (-30.0 30.0)
  end
  begin
     id 14 
     name lowerneck
     direction -0.0180464 0.999645 -0.0195774   
     length 1.59034   
     axis 0 0 0   XYZ
    dof rx ry rz
    limits (-20.0 45.0)
           (-30.0 30.0)
           (-30.0 30.0)
  end
  begin
     id 15 
     name upperneck
     direction 0.0732272 0.979935 -0.18538   
     length 1.57486   
     axis 0 0 0   XYZ
    dof rx ry rz
    limits (-20.0 45.0)
           (-30.0 30.0)
           (-30.0 30.0)
  end
  begin
     id 16
     name head
     direction 0.0252963 0.997909 -0.059472  
     length 1.60334  
     axis 0 0 0   XYZ
    dof rx ry rz
    limits (-20.0 45.0)
           (-30.0 30.0)
           (-30.0 30.0)
  end
  begin
     id 17 
     name lclavicle
     direction 0.943819 0.330449 0.00315172  
     length 3.50322  
     axis 0 0 0   XYZ
    dof ry rz
    limits (-20.0 10.0)
           (0.0 20.0)
  end
  begin
     id 18 
     name lhumerus
     direction 1 -4.48949e-011 2.22502e-028   
     length 4.63208   
     axis 180 -30 -90   XYZ
    dof rx ry rz
    limits (-60.0 90.0)
           (-90.0 90.0)
           (-90.0 90.0)
  end
  begin
     id 19
     name lradius
     direction 1 -4.48967e-011 -4.10197e-027   
     length 3.41924   
     axis 180 -30 -90   XYZ
    dof rx
    limits (-10.0 170.0)
  end
  begin
     id 20
     name lwrist
     direction 1 -4.48987e-011 -1.24264e-027   
     length 1.70962   
     axis 2.50585e-015 90 90   XYZ
    dof ry
    limits (-180.0 0.0)
 end
  begin
     id 21 
     name lhand
     direction 1 -4.48983e-011 -2.48528e-027   
     length 0.62537   
     axis 1.58582e-015 90 90   XYZ
    dof rx rz
    limits (-90.0 90.0)
           (-45.0 45.0)
  end
  begin
     id 22 
     name lfingers
     direction 1 -4.48896e-011 -4.97056e-027   
     length 0.50419   
     axis 3.17164e-015 90 90   XYZ
    dof rx
    limits (0.0 90.0)
  end
  begin
     id 23
     name lthumb
     direction 0.707107 -6.34803e-011 0.707107   
     length 0.723919   
     axis -90 45 2.85299e-015   XYZ
    dof rx rz
    limits (-45.0 45.0)
           (-45.0 45.0)
  end
  begin
     id 24 
     name rclavicle
     direction -0.964499 0.260664 -0.0423695   
     length 3.91997  
     axis 0 0 0   XYZ 
    dof ry rz
    limits (-10.0 20.0)
           (-20.0 0.0)
  end
  begin
     id 25 
     name rhumerus
     direction -1 -4.48957e-011 -1.98656e-027  
     length 4.4064   
     axis 180 30 90   XYZ
    dof rx ry rz
    limits (-90.0 60.0)
           (-90.0 90.0)
           (-90.0 90.0)
  end
  begin
     id 26 
     name rradius
     direction -1 -4.48968e-011 1.96972e-027   
     length 3.44675   
     axis 180 30 90   XYZ
    dof rx
    limits (-10.0 170.0)
  end
  begin
     id 27 
     name rwrist
     direction -1 -4.48974e-011 -1.24264e-027   
     length 1.72338   
     axis 2.50585e-015 -90 -90   XYZ
    dof ry
    limits (-180.0 0.0)
  end
  begin
     id 28
     name rhand
     direction -1 -4.48901e-011 -2.48528e-027   
     length 0.513674   
     axis 1.58582e-015 -90 -90   XYZ
    dof rx rz
    limits (-90.0 90.0)
           (-45.0 45.0)
  end
  begin
     id 29
     name rfingers
     direction -1 -4.48946e-011 -4.97056e-027   
     length 0.414137   
     axis 3.17164e-015 -90 -90   XYZ
    dof rx
    limits (0.0 90.0)
  end
  begin
     id 30
     name rthumb
     direction -0.707107 -6.34859e-011 0.707107   
     length 0.59462   
     axis -90 -45 -2.85299e-015   XYZ
    dof rx rz
    limits (-45.0 45.0)
           (-45.0 45.0)
  end
:hierarchy
  begin
    root lhipjoint rhipjoint lowerback
    lhipjoint lfemur
    lfemur ltibia
    ltibia lfoot
    lfoot ltoes
    rhipjoint rfemur
    rfemur rtibia
    rtibia rfoot
    rfoot rtoes
    lowerback upperback
    upperback thorax
    thorax lowerneck lclavicle rclavicle
    lowerneck upperneck
    upperneck head
    lclavicle lhumerus
    lhumerus lradius
    lradius lwrist
    lwrist lhand lthumb
    lhand lfingers
    rclavicle rhumerus
    rhumerus rradius
    rradius rwrist
    rwrist rhand rthumb
    rhand rfingers
  end

#!OML:ASF E:\inclinewalkrobotboard\Project 1\Capture day 1\Session 1\subject1.ASF
:FULLY-SPECIFIED
:DEGREES
289
root 9.79123 17.1432 -0.0346594 12.1173 0.350247 -0.821451
lowerback -1.28806 1.08251 -9.49687
upperback 4.00975 1.78043 0.62913
thorax 4.63168 0.513046 6.0819
lowerneck -5.6038 -1.50508 -1.61077
upperneck 26.9483 -3.52406 6.56787
head 9.5373 -1.11846 2.21893
rclavicle 1.59028e-015 3.97569e-016
rhumerus -35.5528 -1.37916 -71.0084
rradius 28.2205
rwrist 12.2062
rhand -8.54686 -39.7251
rfingers 7.12502
rthumb 17.3826 -68.9678
lclavicle 1.59028e-015 3.97569e-016
lhumerus -10.4945 -10.3701 82.2794
lradius 20.1236
lwrist -20.8129
lhand -25.6765 -19.1885
lfingers 7.12502
lthumb 0.85816 10.7895
rfemur -26.8989 6.61842 8.67563
rtibia 29.2466
rfoot -17.024 -8.39868
rtoes -28.2177
lfemur -19.7087 -9.43424 -19.292
ltibia 22.963
lfoot -20.2147 8.10844
ltoes -65.1745
290
root 9.76237 17.1389 0.100365 11.8589 1.05063 -0.763366
lowerback -1.05991 0.894108 -9.67874
upperback 4.13021 1.51192 0.77609
thorax 4.67235 0.363226 6.3259
lowerneck -5.45341 -1.58522 -1.36819
upperneck 27.0946 -3.66977 6.51793
head 9.56444 -1.16708 2.14835
rclavicle 6.75868e-015 -2.54444e-014
rhumerus -36.8002 -1.79293 -70.9769
rradius 27.9459
rwrist 12.488
rhand -9.02394 -39.2461
rfingers 7.12502
rthumb 16.9234 -68.5288
lclavicle 6.75868e-015 -2.54444e-014
lhumerus -9.57955 -11.1849 82.6822
lradius 19.9861
lwrist -21.1814
lhand -25.4476 -19.1035
lfingers 7.12502
lthumb 1.07923 10.8736
rfemur -27.4859 6.75467 8.04949
rtibia 28.7418
rfoot -16.4296 -9.17699
rtoes -27.0559
lfemur -18.8295 -9.70057 -19.3375
ltibia 22.7571
lfoot -20.5659 7.85715
ltoes -65.2551
291
root 9.73126 17.1311 0.237272 11.7077 1.80258 -0.532602
lowerback -0.978512 0.662343 -9.97372
upperback 4.25811 1.20833 0.857863
thorax 4.81601 0.18673 6.56768
lowerneck -5.34576 -1.60983 -0.989315
upperneck 27.1515 -3.72752 6.37195
head 9.55924 -1.17198 2.02732
rclavicle 3.97569e-015 2.98177e-014
rhumerus -37.9525 -2.47835 -70.9658
rradius 27.7298
rwrist 12.6395
rhand -10.0731 -38.8388
rfingers 7.12502
rthumb 15.9132 -68.205
lclavicle 3.97569e-015 2.98177e-014
lhumerus -8.71084 -11.828 83.1463
lradius 19.9517
lwrist -21.7667
lhand -25.1769 -18.5699
lfingers 7.12502
lthumb 1.34076 11.4056
rfemur -28.0797 6.54917 7.26603
rtibia 28.2014
rfoot -15.7591 -9.96155
rtoes -27.0029
lfemur -18.1192 -9.94528 -19.558
ltibia 22.6772
lfoot -21.0005 7.43202
ltoes -65.3281
292
root 9.69898 17.1202 0.376737 11.6752 2.5344 -0.128133
lowerback -1.00311 0.38896 -10.3965
upperback 4.35628 0.865835 0.903524
thorax 5.00207 -0.015436 6.84299
lowerneck -5.16361 -1.64248 -0.802355
upperneck 27.0762 -3.77632 6.29877
head 9.49561 -1.18865 1.96459
rclavicle -2.88238e-015 -7.15625e-015
rhumerus -39.1463 -3.14424 -71.0056
rradius 27.5211
rwrist 13.0745
rhand -11.1231 -38.512
rfingers 7.12502
rthumb 14.902 -67.956
lclavicle -2.88238e-015 -7.15625e-015
lhumerus -7.94622 -12.3329 83.7741
lradius 20.0267
lwrist -22.2505
lhand -24.888 -17.8017
lfingers 7.12502
lthumb 1.6197 12.1719
rfemur -28.7364 5.99777 6.34567
rtibia 27.6626
rfoot -15.1107 -10.6077
rtoes -27.0743
lfemur -17.5802 -10.2504 -19.9679
ltibia 22.7294
lfoot -21.4533 6.97108
ltoes -65.4066
293
root 9.66381 17.1064 0.519412 11.6848 3.16455 0.22401
lowerback -0.979596 0.159886 -10.7079
upperback 4.41833 0.572395 0.916622
thorax 5.11693 -0.183212 7.02021
lowerneck -5.13521 -1.6004 -0.158048
upperneck 27.1822 -3.66669 5.70264
head 9.50292 -1.13264 1.65704
rclavicle -1.18277e-014 -4.77083e-015
rhumerus -40.4345 -4.06057 -71.0497
rradius 27.3019
rwrist 13.8622
rhand -11.4262 -38.3974
rfingers 7.12502
rthumb 14.6099 -67.8628
lclavicle -1.18277e-014 -4.77083e-015
lhumerus -7.31239 -13.2546 84.4473
lradius 20.228
lwrist -21.7276
lhand -24.6954 -17.4887
lfingers 7.12502
lthumb 1.80578 12.4834
rfemur -29.4211 5.35702 5.55667
rtibia 27.1168
rfoot -14.3437 -11.0769
rtoes -27.1296
lfemur -17.0881 -10.5159 -20.3007
ltibia 22.8178
lfoot -21.7613 6.9951
ltoes -66.0281
294
root 9.62313 17.0894 0.666345 11.6699 3.68954 0.387585
lowerback -0.91478 -0.00578132 -10.8446
upperback 4.47917 0.349782 0.977673
thorax 5.19291 -0.307803 7.15222
lowerneck -5.30673 -1.57736 0.226436
upperneck 27.3882 -3.64284 5.44631
head 9.59887 -1.10173 1.50456
rclavicle 1.0138e-014 2.8625e-014
rhumerus -41.6084 -5.33952 -70.9515
rradius 26.9927
rwrist 14.4433
rhand -11.328 -38.5708
rfingers 7.12502
rthumb 14.7045 -68.0294
lclavicle 1.0138e-014 2.8625e-014
lhumerus -6.72483 -14.4009 85.1866
lradius 20.4864
lwrist -20.7403
lhand -24.4947 -17.6617
lfingers 7.12502
lthumb 1.99963 12.3087
rfemur -30.0498 4.81773 5.06402
rtibia 26.5026
rfoot -13.3382 -11.4474
rtoes -27.0037
lfemur -16.5982 -10.6473 -20.3785
ltibia 22.9758
lfoot -22.0418 7.32205
ltoes -66.9192
295
root 9.57564 17.0715 0.817839 11.5742 4.18119 0.427959
lowerback -0.864788 -0.153846 -10.8934
upperback 4.53519 0.145785 1.10524
thorax 5.26863 -0.421167 7.30683
lowerneck -5.50908 -1.74373 -0.797985
upperneck 27.61 -4.08363 6.76474
head 9.77986 -1.26393 2.10355
rclavicle -9.93923e-017 1.90833e-014
rhumerus -42.6264 -6.48665 -70.8285
rradius 26.3244
rwrist 14.6882
rhand -11.5333 -38.2944
rfingers 7.12502
rthumb 14.5067 -67.7673
lclavicle -9.93923e-017 1.90833e-014
lhumerus -6.44393 -15.7141 86.0403
lradius 20.9435
lwrist -20.1947
lhand -24.7095 -18.3524
lfingers 7.12502
lthumb 1.79213 11.6198
rfemur -30.488 4.38504 4.80726
rtibia 25.7532
rfoot -12.2113 -11.7917
rtoes -26.5661
lfemur -16.0389 -10.77 -20.28
ltibia 23.2057
lfoot -22.5211 7.42323
ltoes -67.4224
296
root 9.52455 17.0507 0.974147 11.3589 4.62418 0.457648
lowerback -0.729192 -0.308919 -10.8991
upperback 4.58796 -0.0793193 1.22175
thorax 5.29645 -0.54013 7.4235
lowerneck -5.40279 -1.79706 -1.32612
upperneck 27.6743 -4.26164 7.44987
head 9.8161 -1.33009 2.42216
rclavicle 2.98177e-015 -1.86858e-014
rhumerus -43.5113 -7.66738 -70.6628
rradius 25.3241
rwrist 15.3099
rhand -11.6941 -37.8362
rfingers 7.12502
rthumb 14.3518 -67.3201
lclavicle 2.98177e-015 -1.86858e-014
lhumerus -6.48349 -16.942 86.9651
lradius 21.6337
lwrist -20.0029
lhand -25.0021 -18.8576
lfingers 7.12502
lthumb 1.50954 11.1168
rfemur -30.7339 3.94187 4.65426
rtibia 24.9489
rfoot -11.1682 -11.9454
rtoes -25.4408
lfemur -15.2934 -10.9525 -20.1863
ltibia 23.3995
lfoot -23.1983 7.05814
ltoes -67.3383
297
root 9.47349 17.0263 1.13759 11.1401 4.9092 0.600773
lowerback -0.569044 -0.4395 -10.9428
upperback 4.63859 -0.269587 1.24826
thorax 5.30125 -0.639667 7.46684
lowerneck -5.4068 -1.70987 -0.914931
upperneck 27.8315 -4.12923 7.12276
head 9.85338 -1.25763 2.25063
rclavicle 7.05686e-015 1.51076e-014
rhumerus -44.575 -9.40819 -70.2386
rradius 24.7876
rwrist 16.4352
rhand -11.0326 -37.9206
rfingers 7.12502
rthumb 14.9891 -67.3581
lclavicle 7.05686e-015 1.51076e-014
lhumerus -6.48095 -17.9563 87.9351
lradius 22.178
lwrist -19.6617
lhand -25.2209 -18.9911
lfingers 7.12502
lthumb 1.29818 10.9847
rfemur -30.9333 3.42782 4.46246
rtibia 24.1401
rfoot -10.2773 -11.8779
rtoes -25.0813
lfemur -14.4767 -11.1811 -20.2716
ltibia 23.56
lfoot -23.8462 6.79756
ltoes -67.2391
